<svg xmlns="http://www.w3.org/2000/svg" width="172" height="124" viewBox="0 0 172 124" role="img" aria-label="年三十到家">
  <defs>
    <linearGradient id="ticketWarm" x1="0" x2="1" y1="0" y2="1">
      <stop offset="0" stop-color="#fff4cf"/>
      <stop offset=".55" stop-color="#ffd884"/>
      <stop offset="1" stop-color="#ffad4a"/>
    </linearGradient>
    <linearGradient id="roadTeal" x1="0" x2="1">
      <stop offset="0" stop-color="#14d8b4"/>
      <stop offset="1" stop-color="#62f0ce"/>
    </linearGradient>
    <filter id="ticketShadow" x="-20%" y="-20%" width="140%" height="140%">
      <feDropShadow dx="0" dy="8" stdDeviation="5" flood-color="#241307" flood-opacity=".32"/>
    </filter>
  </defs>
  <g filter="url(#ticketShadow)" transform="rotate(5 86 62)">
    <path d="M21 33a9 9 0 0 1 9-9h112a9 9 0 0 1 9 9v14a10 10 0 0 0 0 20v24a9 9 0 0 1-9 9H30a9 9 0 0 1-9-9V67a10 10 0 0 0 0-20Z" fill="url(#ticketWarm)"/>
    <path d="M51 25v74" stroke="#be7b33" stroke-width="2" stroke-dasharray="6 7" opacity=".55"/>
    <circle cx="51" cy="39" r="2.5" fill="#be7b33" opacity=".45"/>
    <circle cx="51" cy="61" r="2.5" fill="#be7b33" opacity=".45"/>
    <circle cx="51" cy="83" r="2.5" fill="#be7b33" opacity=".45"/>
    <path d="M66 76c12-17 25-17 38 0 7-9 16-11 28-3" fill="none" stroke="url(#roadTeal)" stroke-width="5" stroke-linecap="round"/>
    <path d="M68 83h58" stroke="#6f3f1e" stroke-width="3" stroke-linecap="round" opacity=".62"/>
    <text x="94" y="58" text-anchor="middle" font-family="Microsoft YaHei, PingFang SC, sans-serif" font-size="25" font-weight="900" fill="#5b2b16">年三十到家</text>
    <text x="94" y="91" text-anchor="middle" font-family="Microsoft YaHei, PingFang SC, sans-serif" font-size="12" font-weight="800" fill="#87511e">有钱没钱 都要回家</text>
    <path d="M31 44h9v18h-9z" rx="2" fill="#e23e2d"/>
    <path d="M30 41h11M30 65h11" stroke="#ffd884" stroke-width="2" stroke-linecap="round"/>
  </g>
</svg>
