<svg xmlns="http://www.w3.org/2000/svg" width="190" height="130" viewBox="0 0 190 130" role="img" aria-label="贼摇滚摩托">
  <defs>
    <linearGradient id="motoBody" x1="0" x2="1">
      <stop offset="0" stop-color="#171d25"/>
      <stop offset=".6" stop-color="#303945"/>
      <stop offset="1" stop-color="#0e1218"/>
    </linearGradient>
    <linearGradient id="tailFire" x1="0" x2="1">
      <stop offset="0" stop-color="#ff3d3d"/>
      <stop offset=".55" stop-color="#ffbc3a"/>
      <stop offset="1" stop-color="#fff2a1"/>
    </linearGradient>
    <filter id="motoShadow" x="-20%" y="-20%" width="140%" height="140%">
      <feDropShadow dx="0" dy="9" stdDeviation="5" flood-color="#020305" flood-opacity=".42"/>
    </filter>
  </defs>
  <g filter="url(#motoShadow)">
    <path d="M16 73c20 0 28 9 38 18" fill="none" stroke="url(#tailFire)" stroke-width="9" stroke-linecap="round"/>
    <path d="M21 57c17 1 33 8 45 21" fill="none" stroke="#ff5a3d" stroke-width="4" stroke-linecap="round" opacity=".9"/>
    <circle cx="62" cy="91" r="20" fill="#10151c" stroke="#f6bc4f" stroke-width="5"/>
    <circle cx="147" cy="91" r="20" fill="#10151c" stroke="#f6bc4f" stroke-width="5"/>
    <circle cx="62" cy="91" r="7" fill="#ffefb8"/>
    <circle cx="147" cy="91" r="7" fill="#ffefb8"/>
    <path d="M57 84h43l20-23h28l14 30H82z" fill="url(#motoBody)" stroke="#f6bc4f" stroke-width="4" stroke-linejoin="round"/>
    <path d="M101 61 85 39h31l14 22z" fill="#2e3846" stroke="#14d8b4" stroke-width="4" stroke-linejoin="round"/>
    <rect x="73" y="22" width="56" height="35" rx="8" fill="#c67a38" stroke="#fff1c9" stroke-width="4"/>
    <path d="M83 31h35M81 44h39" stroke="#8a4d22" stroke-width="4" stroke-linecap="round"/>
    <path d="M132 62c9-16 19-22 31-17" fill="none" stroke="#f6bc4f" stroke-width="5" stroke-linecap="round"/>
    <circle cx="164" cy="45" r="5" fill="#14d8b4"/>
    <text x="97" y="18" text-anchor="middle" font-family="Microsoft YaHei, PingFang SC, sans-serif" font-size="20" font-weight="900" fill="#fff1c9">贼摇滚</text>
    <path d="M32 28v15c0 5 10 5 10-1" fill="none" stroke="#14d8b4" stroke-width="4" stroke-linecap="round"/>
    <path d="M158 18v16c0 6 11 6 11-1" fill="none" stroke="#ff5a3d" stroke-width="4" stroke-linecap="round"/>
  </g>
</svg>
