<svg xmlns="http://www.w3.org/2000/svg" width="168" height="126" viewBox="0 0 168 126" role="img" aria-label="欠薪结清">
  <defs>
    <filter id="cashShadow" x="-20%" y="-20%" width="140%" height="140%">
      <feDropShadow dx="0" dy="8" stdDeviation="5" flood-color="#150905" flood-opacity=".34"/>
    </filter>
    <linearGradient id="cashPaper" x1="0" x2="1" y1="0" y2="1">
      <stop offset="0" stop-color="#fff7db"/>
      <stop offset=".55" stop-color="#e7f2c1"/>
      <stop offset="1" stop-color="#9fd27a"/>
    </linearGradient>
    <linearGradient id="cashOrange" x1="0" x2="1">
      <stop offset="0" stop-color="#ff7a30"/>
      <stop offset="1" stop-color="#ffc35b"/>
    </linearGradient>
  </defs>
  <g filter="url(#cashShadow)" transform="rotate(-4 84 63)">
    <rect x="35" y="36" width="100" height="58" rx="8" fill="#5d3c28"/>
    <rect x="28" y="27" width="100" height="58" rx="8" fill="url(#cashPaper)" stroke="#2f7a46" stroke-width="4"/>
    <rect x="41" y="39" width="74" height="34" rx="6" fill="none" stroke="#2f7a46" stroke-width="3" opacity=".65"/>
    <circle cx="78" cy="56" r="13" fill="#2f7a46" opacity=".15"/>
    <text x="78" y="63" text-anchor="middle" font-family="Microsoft YaHei, PingFang SC, sans-serif" font-size="22" font-weight="900" fill="#25683c">结清</text>
    <path d="M117 31 142 48 126 77 104 63z" fill="url(#cashOrange)" stroke="#fff1cc" stroke-width="3"/>
    <text x="123" y="61" text-anchor="middle" font-family="Microsoft YaHei, PingFang SC, sans-serif" font-size="15" font-weight="900" fill="#5b2610">工钱</text>
  </g>
  <g fill="#ffc35b">
    <circle cx="22" cy="40" r="3"/>
    <circle cx="147" cy="31" r="4"/>
    <circle cx="137" cy="96" r="3"/>
    <path d="M24 87h18M33 78v18" stroke="#ffc35b" stroke-width="4" stroke-linecap="round"/>
  </g>
</svg>
