<svg width="128" height="128" viewBox="0 0 128 128" xmlns="http://www.w3.org/2000/svg">
  <defs>
    <linearGradient id="r" x1="24" y1="18" x2="104" y2="112" gradientUnits="userSpaceOnUse">
      <stop stop-color="#FFD8E8"/>
      <stop offset=".52" stop-color="#FF507D"/>
      <stop offset="1" stop-color="#3C5DDC"/>
    </linearGradient>
    <filter id="shadow" x="-20%" y="-20%" width="140%" height="140%">
      <feDropShadow dx="0" dy="8" stdDeviation="6" flood-color="#1E2250" flood-opacity=".32"/>
    </filter>
  </defs>
  <circle cx="64" cy="61" r="42" fill="url(#r)" filter="url(#shadow)"/>
  <path d="M62 35c16 0 25 14 15 27-8 11-15 19-15 19s-7-8-15-19c-10-13-1-27 15-27z" fill="#FFF0F5"/>
  <path d="M64 35c-5 18-4 32 0 47" stroke="#C91F52" stroke-width="5" stroke-linecap="round"/>
  <path d="M45 86c15-10 26-10 42 0" stroke="#243B99" stroke-width="7" stroke-linecap="round"/>
  <path d="M83 74l13 13M96 74L83 87" stroke="#fff" stroke-width="5" stroke-linecap="round"/>
  <text x="64" y="110" text-anchor="middle" font-size="15" font-weight="900" fill="#fff" font-family="Arial, sans-serif">别错过</text>
</svg>
