<svg width="128" height="128" viewBox="0 0 128 128" xmlns="http://www.w3.org/2000/svg">
  <defs>
    <linearGradient id="m" x1="20" y1="16" x2="108" y2="112" gradientUnits="userSpaceOnUse">
      <stop stop-color="#F7FFFF"/>
      <stop offset=".48" stop-color="#6DBBFF"/>
      <stop offset="1" stop-color="#111B4A"/>
    </linearGradient>
    <filter id="maskShadow" x="-20%" y="-20%" width="140%" height="140%">
      <feDropShadow dx="0" dy="8" stdDeviation="6" flood-color="#0E183C" flood-opacity=".35"/>
    </filter>
  </defs>
  <circle cx="64" cy="64" r="44" fill="url(#m)" filter="url(#maskShadow)"/>
  <path d="M36 48c15-14 41-14 56 0-2 30-14 45-28 45S38 78 36 48z" fill="#F8FCFF"/>
  <path d="M64 36v58" stroke="#243B99" stroke-width="5" stroke-linecap="round"/>
  <path d="M45 60c9-7 16-7 24 0M59 75c5 4 10 4 15 0" stroke="#111B4A" stroke-width="5" stroke-linecap="round"/>
  <path d="M80 31l20-13M89 43l21-6" stroke="#FFCF6B" stroke-width="6" stroke-linecap="round"/>
  <text x="64" y="112" text-anchor="middle" font-size="15" font-weight="900" fill="#fff" font-family="Arial, sans-serif">纨绔反转</text>
</svg>
