<svg xmlns="http://www.w3.org/2000/svg" width="180" height="140" viewBox="0 0 180 140" role="img" aria-label="火车贴图">
  <rect width="180" height="140" rx="28" fill="#f5f7ff"/>
  <path d="M42 32h96c10 0 18 8 18 18v46c0 8-6 14-14 14H38c-8 0-14-6-14-14V50c0-10 8-18 18-18Z" fill="#4e6cff"/>
  <path d="M45 48h90c5 0 9 4 9 9v20H36V57c0-5 4-9 9-9Z" fill="#cfe5ff"/>
  <path d="M36 82h108v12H36z" fill="#19233f"/>
  <circle cx="58" cy="110" r="10" fill="#19233f"/>
  <circle cx="122" cy="110" r="10" fill="#19233f"/>
  <path d="m64 122 52-52M86 122l52-52" stroke="#ffcf4a" stroke-width="7" stroke-linecap="round"/>
  <text x="90" y="28" text-anchor="middle" font-family="Arial, sans-serif" font-size="18" font-weight="900" fill="#19233f">火车回家</text>
</svg>
