<svg xmlns="http://www.w3.org/2000/svg" width="256" height="184" viewBox="0 0 256 184">
  <defs>
    <filter id="qlShadow" x="-20%" y="-20%" width="140%" height="140%">
      <feDropShadow dx="0" dy="10" stdDeviation="7" flood-color="#101722" flood-opacity=".3"/>
    </filter>
  </defs>
  <g filter="url(#qlShadow)">
    <path d="M62 88c-4-34 18-58 54-52 23 4 38 20 43 42 15-6 31-3 42 9 20 21 10 56-18 67-34 13-66-9-76-39-13 9-31 12-45 4Z" fill="#f3fbff" stroke="#9fd8ff" stroke-width="7" stroke-linejoin="round"/>
    <text x="115" y="100" text-anchor="middle" font-family="Arial, sans-serif" font-size="58" font-weight="900" fill="#28699a">?</text>
    <path d="M163 71c10-19 36-11 26 10-7 15-26 27-26 27s-11-21 0-37Z" fill="#ff80ad"/>
    <text x="128" y="166" text-anchor="middle" font-family="Microsoft YaHei, Arial, sans-serif" font-size="24" font-weight="900" fill="#8a2559">爱还是现实</text>
  </g>
</svg>
