<svg xmlns="http://www.w3.org/2000/svg" width="256" height="184" viewBox="0 0 256 184">
  <defs>
    <radialGradient id="kissGlow" cx="50%" cy="45%" r="62%">
      <stop stop-color="#fff4fb"/>
      <stop offset=".62" stop-color="#ff8fba"/>
      <stop offset="1" stop-color="#ff5f97"/>
    </radialGradient>
    <filter id="kissShadow" x="-20%" y="-20%" width="140%" height="140%">
      <feDropShadow dx="0" dy="10" stdDeviation="7" flood-color="#101722" flood-opacity=".34"/>
    </filter>
  </defs>
  <g filter="url(#kissShadow)">
    <path d="M71 92c17-28 36-36 57-18 21-18 41-10 58 18-15 32-42 48-58 48S86 124 71 92Z" fill="url(#kissGlow)" stroke="#8a2559" stroke-width="7" stroke-linejoin="round"/>
    <path d="M77 92c30 10 70 10 101 0" fill="none" stroke="#8a2559" stroke-width="6" stroke-linecap="round"/>
    <path d="M52 48c12-25 45-16 33 10-9 18-33 34-33 34S40 66 52 48Z" fill="#ff77aa"/>
    <path d="M190 35c10-19 35-12 26 9-7 14-26 26-26 26s-11-20 0-35Z" fill="#ffd3e4"/>
    <text x="128" y="166" text-anchor="middle" font-family="Microsoft YaHei, Arial, sans-serif" font-size="26" font-weight="900" fill="#fff0f7" stroke="#8a2559" stroke-width="4" paint-order="stroke">突然亲了</text>
  </g>
</svg>
