<svg xmlns="http://www.w3.org/2000/svg" width="256" height="184" viewBox="0 0 256 184">
  <defs>
    <radialGradient id="blushFace" cx="50%" cy="42%" r="62%">
      <stop stop-color="#fff6fb"/>
      <stop offset="1" stop-color="#ffd1e1"/>
    </radialGradient>
    <filter id="blushShadow" x="-20%" y="-20%" width="140%" height="140%">
      <feDropShadow dx="0" dy="10" stdDeviation="7" flood-color="#101722" flood-opacity=".28"/>
    </filter>
  </defs>
  <g filter="url(#blushShadow)">
    <circle cx="128" cy="86" r="58" fill="url(#blushFace)" stroke="#ff78aa" stroke-width="7"/>
    <circle cx="104" cy="80" r="7" fill="#452135"/>
    <circle cx="152" cy="80" r="7" fill="#452135"/>
    <path d="M104 109c15 12 33 12 48 0" fill="none" stroke="#452135" stroke-width="6" stroke-linecap="round"/>
    <path d="M67 98h26M164 98h26M70 112h20M166 112h20" stroke="#ff78aa" stroke-width="6" stroke-linecap="round"/>
    <path d="M51 43c8-15 28-10 21 6-5 12-21 21-21 21S43 55 51 43ZM195 35c9-17 32-11 24 8-7 14-24 25-24 25s-10-19 0-33Z" fill="#ff8fba"/>
    <text x="128" y="166" text-anchor="middle" font-family="Microsoft YaHei, Arial, sans-serif" font-size="24" font-weight="900" fill="#8a2559">脸红了</text>
  </g>
</svg>
