<svg xmlns="http://www.w3.org/2000/svg" width="256" height="184" viewBox="0 0 256 184">
  <defs>
    <filter id="crowShadow" x="-20%" y="-20%" width="140%" height="140%">
      <feDropShadow dx="0" dy="10" stdDeviation="6" flood-color="#101722" flood-opacity=".36"/>
    </filter>
  </defs>
  <g filter="url(#crowShadow)">
    <path d="M52 112c4-42 34-70 74-72 30-2 56 12 70 38 8 16 10 34 4 51-24-20-52-26-86-18-22 5-42 6-62 1Z" fill="#202834"/>
    <path d="M184 73c20 0 34 6 48 18-15 5-31 7-47 5Z" fill="#121923"/>
    <circle cx="145" cy="63" r="7" fill="#f7d56c"/>
    <circle cx="147" cy="63" r="3" fill="#111720"/>
    <path d="M74 126c8 12 19 18 34 18h54c19 0 34-9 44-27 8 34-19 55-70 55-44 0-68-15-62-46Z" fill="#2c3542"/>
    <path d="M58 107c-20-3-34-11-42-25 21 1 38 7 53 18Z" fill="#151c26"/>
    <rect x="24" y="20" width="92" height="38" rx="19" fill="#fff5f6"/>
    <text x="70" y="45" text-anchor="middle" font-family="Microsoft YaHei, Arial, sans-serif" font-size="24" font-weight="900" fill="#202834">无语</text>
    <circle cx="48" cy="71" r="4" fill="#fff5f6"/>
    <circle cx="60" cy="79" r="3" fill="#fff5f6"/>
  </g>
</svg>
