<svg xmlns="http://www.w3.org/2000/svg" width="256" height="184" viewBox="0 0 256 184">
  <defs>
    <linearGradient id="hugFill" x1="48" y1="30" x2="202" y2="150" gradientUnits="userSpaceOnUse">
      <stop stop-color="#fff7d6"/>
      <stop offset="1" stop-color="#ffd9e7"/>
    </linearGradient>
    <filter id="hugShadow" x="-20%" y="-20%" width="140%" height="140%">
      <feDropShadow dx="0" dy="10" stdDeviation="7" flood-color="#101722" flood-opacity=".28"/>
    </filter>
  </defs>
  <g filter="url(#hugShadow)">
    <path d="M70 104c4-34 28-56 58-56s54 22 58 56c3 28-21 50-58 50s-61-22-58-50Z" fill="url(#hugFill)" stroke="#ff8ab3" stroke-width="7"/>
    <path d="M69 108c-27-1-39-17-31-42 23 7 39 21 47 43M187 108c27-1 39-17 31-42-23 7-39 21-47 43" fill="#fff7d6" stroke="#ff8ab3" stroke-width="7" stroke-linejoin="round"/>
    <circle cx="106" cy="90" r="6" fill="#5b2a3f"/>
    <circle cx="150" cy="90" r="6" fill="#5b2a3f"/>
    <path d="M107 113c14 10 28 10 42 0" fill="none" stroke="#5b2a3f" stroke-width="6" stroke-linecap="round"/>
    <text x="128" y="171" text-anchor="middle" font-family="Microsoft YaHei, Arial, sans-serif" font-size="26" font-weight="900" fill="#8a2559">抱抱她</text>
  </g>
</svg>
