<svg xmlns="http://www.w3.org/2000/svg" viewBox="0 0 160 110">
  <defs>
    <linearGradient id="g" x1="0" y1="0" x2="1" y2="1">
      <stop offset="0" stop-color="#dff7ff"/>
      <stop offset="1" stop-color="#8bd3ff"/>
    </linearGradient>
  </defs>
  <path d="M17 68c24-34 55-48 91-42 18 3 30 13 36 28-31-10-63-6-96 12-10 5-20 10-31 2z" fill="url(#g)" stroke="#f8fdff" stroke-width="4"/>
  <path d="M33 73c7 13 20 18 39 16 22-3 40-13 55-30" fill="none" stroke="#2a84d2" stroke-width="4" stroke-linecap="round"/>
  <path d="M44 26l-7 20M73 17l-9 26M105 19l-8 23M131 33l-8 20" stroke="#e7c6ff" stroke-width="5" stroke-linecap="round"/>
  <circle cx="115" cy="62" r="7" fill="#fff" opacity=".75"/>
</svg>
